HIERARCHY
ROOT mixamorig:Hips
{
	OFFSET -0.000008 104.274872 1.554316
	CHANNELS 6 Xposition Yposition Zposition Xrotation Yrotation Zrotation
	JOINT mixamorig:Spine
	{
		OFFSET -0.000005 10.181595 0.131519
		CHANNELS 6 Xposition Yposition Zposition Xrotation Yrotation Zrotation
		JOINT mixamorig:Spine1
		{
			OFFSET -0.000000 9.893959 -1.470707
			CHANNELS 6 Xposition Yposition Zposition Xrotation Yrotation Zrotation
			JOINT mixamorig:Spine2
			{
				OFFSET -0.000000 9.220757 -1.370641
				CHANNELS 6 Xposition Yposition Zposition Xrotation Yrotation Zrotation
				JOINT mixamorig:Neck
				{
					OFFSET 0.000001 16.740417 -2.049036
					CHANNELS 6 Xposition Yposition Zposition Xrotation Yrotation Zrotation
					JOINT mixamorig:Head
					{
						OFFSET 0.000000 9.617874 1.685006
						CHANNELS 6 Xposition Yposition Zposition Xrotation Yrotation Zrotation
						JOINT mixamorig:HeadTop_End
						{
							OFFSET 0.000002 22.037354 7.501101
							CHANNELS 6 Xposition Yposition Zposition Xrotation Yrotation Zrotation
							End Site
							{
								OFFSET 0.000168 2310.654297 -282.823242
							}
						}
					}
				}
				JOINT mixamorig:RightShoulder
				{
					OFFSET -4.569970 11.014908 -2.160885
					CHANNELS 6 Xposition Yposition Zposition Xrotation Yrotation Zrotation
					JOINT mixamorig:RightArm
					{
						OFFSET -10.592851 -0.524811 -2.232101
						CHANNELS 6 Xposition Yposition Zposition Xrotation Yrotation Zrotation
						JOINT mixamorig:RightForeArm
						{
							OFFSET -27.841511 0.000031 -0.000004
							CHANNELS 6 Xposition Yposition Zposition Xrotation Yrotation Zrotation
							JOINT mixamorig:RightHand
							{
								OFFSET -28.328831 -0.000015 0.000015
								CHANNELS 6 Xposition Yposition Zposition Xrotation Yrotation Zrotation
								JOINT mixamorig:RightHandThumb1
								{
									OFFSET -2.464806 -1.573990 2.681852
									CHANNELS 6 Xposition Yposition Zposition Xrotation Yrotation Zrotation
									JOINT mixamorig:RightHandThumb2
									{
										OFFSET -3.215179 -1.872803 1.924282
										CHANNELS 6 Xposition Yposition Zposition Xrotation Yrotation Zrotation
										JOINT mixamorig:RightHandThumb3
										{
											OFFSET -2.654831 -1.527969 1.512609
											CHANNELS 6 Xposition Yposition Zposition Xrotation Yrotation Zrotation
											JOINT mixamorig:RightHandThumb4
											{
												OFFSET -2.018814 -1.152008 1.108052
												CHANNELS 6 Xposition Yposition Zposition Xrotation Yrotation Zrotation
												End Site
												{
													OFFSET -188.809540 -114.533607 132.431396
												}
											}
										}
									}
								}
								JOINT mixamorig:RightHandIndex1
								{
									OFFSET -9.108284 -0.517868 2.259835
									CHANNELS 6 Xposition Yposition Zposition Xrotation Yrotation Zrotation
									JOINT mixamorig:RightHandIndex2
									{
										OFFSET -3.699989 0.000000 0.001215
										CHANNELS 6 Xposition Yposition Zposition Xrotation Yrotation Zrotation
										JOINT mixamorig:RightHandIndex3
										{
											OFFSET -2.850006 0.000031 -0.000522
											CHANNELS 6 Xposition Yposition Zposition Xrotation Yrotation Zrotation
											JOINT mixamorig:RightHandIndex4
											{
												OFFSET -2.772186 -0.000015 -0.000020
												CHANNELS 6 Xposition Yposition Zposition Xrotation Yrotation Zrotation
												End Site
												{
													OFFSET -277.218445 0.000000 -0.050231
												}
											}
										}
									}
								}
								JOINT mixamorig:RightHandMiddle1
								{
									OFFSET -9.532516 -0.000031 -0.000023
									CHANNELS 6 Xposition Yposition Zposition Xrotation Yrotation Zrotation
									JOINT mixamorig:RightHandMiddle2
									{
										OFFSET -3.700005 -0.000015 0.003713
										CHANNELS 6 Xposition Yposition Zposition Xrotation Yrotation Zrotation
										JOINT mixamorig:RightHandMiddle3
										{
											OFFSET -2.949974 0.000015 -0.002054
											CHANNELS 6 Xposition Yposition Zposition Xrotation Yrotation Zrotation
											JOINT mixamorig:RightHandMiddle4
											{
												OFFSET -2.946640 0.000000 -0.000156
												CHANNELS 6 Xposition Yposition Zposition Xrotation Yrotation Zrotation
												End Site
												{
													OFFSET -294.664337 0.000000 -0.113670
												}
											}
										}
									}
								}
								JOINT mixamorig:RightHandRing1
								{
									OFFSET -9.103600 -0.043076 -1.865134
									CHANNELS 6 Xposition Yposition Zposition Xrotation Yrotation Zrotation
									JOINT mixamorig:RightHandRing2
									{
										OFFSET -3.379288 0.000000 -0.001055
										CHANNELS 6 Xposition Yposition Zposition Xrotation Yrotation Zrotation
										JOINT mixamorig:RightHandRing3
										{
											OFFSET -2.889687 -0.000015 0.000379
											CHANNELS 6 Xposition Yposition Zposition Xrotation Yrotation Zrotation
											JOINT mixamorig:RightHandRing4
											{
												OFFSET -2.638809 -0.000015 0.000941
												CHANNELS 6 Xposition Yposition Zposition Xrotation Yrotation Zrotation
												End Site
												{
													OFFSET -263.880371 0.000000 0.516020
												}
											}
										}
									}
								}
								JOINT mixamorig:RightHandPinky1
								{
									OFFSET -8.076683 -0.486710 -3.806280
									CHANNELS 6 Xposition Yposition Zposition Xrotation Yrotation Zrotation
									JOINT mixamorig:RightHandPinky2
									{
										OFFSET -3.600014 -0.000015 -0.003747
										CHANNELS 6 Xposition Yposition Zposition Xrotation Yrotation Zrotation
										JOINT mixamorig:RightHandPinky3
										{
											OFFSET -2.099983 0.000000 -0.005739
											CHANNELS 6 Xposition Yposition Zposition Xrotation Yrotation Zrotation
											JOINT mixamorig:RightHandPinky4
											{
												OFFSET -2.115768 -0.000031 -0.003680
												CHANNELS 6 Xposition Yposition Zposition Xrotation Yrotation Zrotation
												End Site
												{
													OFFSET -211.577087 0.000000 -0.350686
												}
											}
										}
									}
								}
							}
						}
					}
				}
				JOINT mixamorig:LeftShoulder
				{
					OFFSET 4.570447 11.014725 -2.160855
					CHANNELS 6 Xposition Yposition Zposition Xrotation Yrotation Zrotation
					JOINT mixamorig:LeftArm
					{
						OFFSET 10.592371 -0.524597 -2.232119
						CHANNELS 6 Xposition Yposition Zposition Xrotation Yrotation Zrotation
						JOINT mixamorig:LeftForeArm
						{
							OFFSET 27.841532 -0.000031 0.000026
							CHANNELS 6 Xposition Yposition Zposition Xrotation Yrotation Zrotation
							JOINT mixamorig:LeftHand
							{
								OFFSET 28.328846 -0.000061 0.000022
								CHANNELS 6 Xposition Yposition Zposition Xrotation Yrotation Zrotation
								JOINT mixamorig:LeftHandThumb1
								{
									OFFSET 2.466141 -1.576172 2.681732
									CHANNELS 6 Xposition Yposition Zposition Xrotation Yrotation Zrotation
									JOINT mixamorig:LeftHandThumb2
									{
										OFFSET 3.217812 -1.872070 1.916482
										CHANNELS 6 Xposition Yposition Zposition Xrotation Yrotation Zrotation
										JOINT mixamorig:LeftHandThumb3
										{
											OFFSET 2.656029 -1.528778 1.514513
											CHANNELS 6 Xposition Yposition Zposition Xrotation Yrotation Zrotation
											JOINT mixamorig:LeftHandThumb4
											{
												OFFSET 2.020889 -1.154053 1.115139
												CHANNELS 6 Xposition Yposition Zposition Xrotation Yrotation Zrotation
												End Site
												{
													OFFSET 190.885437 -115.081749 130.048782
												}
											}
										}
									}
								}
								JOINT mixamorig:LeftHandIndex1
								{
									OFFSET 9.109314 -0.518021 2.259871
									CHANNELS 6 Xposition Yposition Zposition Xrotation Yrotation Zrotation
									JOINT mixamorig:LeftHandIndex2
									{
										OFFSET 3.699989 0.000000 -0.000322
										CHANNELS 6 Xposition Yposition Zposition Xrotation Yrotation Zrotation
										JOINT mixamorig:LeftHandIndex3
										{
											OFFSET 2.850006 0.000000 0.000352
											CHANNELS 6 Xposition Yposition Zposition Xrotation Yrotation Zrotation
											JOINT mixamorig:LeftHandIndex4
											{
												OFFSET 2.774864 -0.000031 -0.000027
												CHANNELS 6 Xposition Yposition Zposition Xrotation Yrotation Zrotation
												End Site
												{
													OFFSET 277.486267 0.000000 -0.009857
												}
											}
										}
									}
								}
								JOINT mixamorig:LeftHandMiddle1
								{
									OFFSET 9.533394 0.000061 0.000044
									CHANNELS 6 Xposition Yposition Zposition Xrotation Yrotation Zrotation
									JOINT mixamorig:LeftHandMiddle2
									{
										OFFSET 3.699989 -0.000015 -0.000231
										CHANNELS 6 Xposition Yposition Zposition Xrotation Yrotation Zrotation
										JOINT mixamorig:LeftHandMiddle3
										{
											OFFSET 2.949997 -0.000015 -0.000059
											CHANNELS 6 Xposition Yposition Zposition Xrotation Yrotation Zrotation
											JOINT mixamorig:LeftHandMiddle4
											{
												OFFSET 2.952896 0.000031 0.000063
												CHANNELS 6 Xposition Yposition Zposition Xrotation Yrotation Zrotation
												End Site
												{
													OFFSET 295.289337 0.000000 0.022810
												}
											}
										}
									}
								}
								JOINT mixamorig:LeftHandRing1
								{
									OFFSET 9.104523 -0.042999 -1.865074
									CHANNELS 6 Xposition Yposition Zposition Xrotation Yrotation Zrotation
									JOINT mixamorig:LeftHandRing2
									{
										OFFSET 3.150009 -0.000031 0.000043
										CHANNELS 6 Xposition Yposition Zposition Xrotation Yrotation Zrotation
										JOINT mixamorig:LeftHandRing3
										{
											OFFSET 2.949982 -0.000015 0.000040
											CHANNELS 6 Xposition Yposition Zposition Xrotation Yrotation Zrotation
											JOINT mixamorig:LeftHandRing4
											{
												OFFSET 2.644348 0.000000 0.000057
												CHANNELS 6 Xposition Yposition Zposition Xrotation Yrotation Zrotation
												End Site
												{
													OFFSET 264.434631 0.000000 0.012105
												}
											}
										}
									}
								}
								JOINT mixamorig:LeftHandPinky1
								{
									OFFSET 8.077789 -0.486847 -3.806259
									CHANNELS 6 Xposition Yposition Zposition Xrotation Yrotation Zrotation
									JOINT mixamorig:LeftHandPinky2
									{
										OFFSET 3.599953 0.000031 0.014727
										CHANNELS 6 Xposition Yposition Zposition Xrotation Yrotation Zrotation
										JOINT mixamorig:LeftHandPinky3
										{
											OFFSET 2.100021 0.000015 0.007705
											CHANNELS 6 Xposition Yposition Zposition Xrotation Yrotation Zrotation
											JOINT mixamorig:LeftHandPinky4
											{
												OFFSET 2.125504 0.000031 0.007517
												CHANNELS 6 Xposition Yposition Zposition Xrotation Yrotation Zrotation
												End Site
												{
													OFFSET 212.550781 0.000000 0.625752
												}
											}
										}
									}
								}
							}
						}
					}
				}
			}
		}
	}
	JOINT mixamorig:RightUpLeg
	{
		OFFSET -8.207787 -6.751648 -1.599560
		CHANNELS 6 Xposition Yposition Zposition Xrotation Yrotation Zrotation
		JOINT mixamorig:RightLeg
		{
			OFFSET -0.000002 -44.370117 0.345942
			CHANNELS 6 Xposition Yposition Zposition Xrotation Yrotation Zrotation
			JOINT mixamorig:RightFoot
			{
				OFFSET 0.000003 -44.423679 -3.043532
				CHANNELS 6 Xposition Yposition Zposition Xrotation Yrotation Zrotation
				JOINT mixamorig:RightToeBase
				{
					OFFSET -0.000002 -8.728671 10.710558
					CHANNELS 6 Xposition Yposition Zposition Xrotation Yrotation Zrotation
					JOINT mixamorig:RightToe_End
					{
						OFFSET -0.000001 -0.000679 9.278119
						CHANNELS 6 Xposition Yposition Zposition Xrotation Yrotation Zrotation
						End Site
						{
							OFFSET 0.000000 -0.067690 927.812134
						}
					}
				}
			}
		}
	}
	JOINT mixamorig:LeftUpLeg
	{
		OFFSET 8.207793 -6.751686 -1.599556
		CHANNELS 6 Xposition Yposition Zposition Xrotation Yrotation Zrotation
		JOINT mixamorig:LeftLeg
		{
			OFFSET -0.000004 -44.370014 0.346954
			CHANNELS 6 Xposition Yposition Zposition Xrotation Yrotation Zrotation
			JOINT mixamorig:LeftFoot
			{
				OFFSET -0.000001 -44.423672 -3.044401
				CHANNELS 6 Xposition Yposition Zposition Xrotation Yrotation Zrotation
				JOINT mixamorig:LeftToeBase
				{
					OFFSET -0.000002 -8.728669 10.710558
					CHANNELS 6 Xposition Yposition Zposition Xrotation Yrotation Zrotation
					JOINT mixamorig:LeftToe_End
					{
						OFFSET -0.000003 -0.000679 9.278133
						CHANNELS 6 Xposition Yposition Zposition Xrotation Yrotation Zrotation
						End Site
						{
							OFFSET 0.000000 -0.068021 927.813477
						}
					}
				}
			}
		}
	}
}
MOTION
Frames: 3
Frame Time: 0.033333
0.000006 104.270477 1.554256 0.000010 0.000003 -0.000113 -0.000005 10.181587 0.131522 0.000001 -0.000003 0.000084 -0.000000 9.893967 -1.470711 0.000001 0.000000 -0.000000 -0.000000 9.220802 -1.370642 0.000000 -0.000000 -0.000000 0.000001 16.740433 -2.049030 0.000000 -0.000000 -0.000000 0.000000 9.617859 1.685014 0.000000 0.000000 0.000000 0.000002 22.037384 7.501101 0.000000 -0.000000 0.000000 -4.569968 11.014880 -2.160881 0.000008 0.000001 -0.000038 -10.592876 -0.524760 -2.231914 72.795234 27.450663 -20.414086 -27.841537 0.000015 0.000513 -61.274959 109.973743 80.425860 -28.328838 0.000021 0.000019 -0.000323 -0.000044 0.000008 -2.464418 -1.573790 2.682372 -43.600881 -164.713878 1.463623 -3.215300 -1.872594 1.924664 157.770103 30.291868 -5.383883 -2.654954 -1.527909 1.513094 150.954175 25.387531 -42.789878 -2.018831 -1.152001 1.108060 0.000001 0.000001 0.000004 -9.108395 -0.517569 2.260090 90.143757 18.857751 -18.952163 -3.700068 0.000306 0.001450 84.640066 15.311481 -13.934315 -2.850108 0.000359 -0.000308 83.151146 12.145952 -10.782182 -2.772159 0.000001 -0.000018 0.000003 -0.000003 0.000001 -9.532582 0.000262 0.000208 84.912331 14.886069 -13.761331 -3.700062 0.000331 0.003924 84.091800 11.514963 -10.306312 -2.950053 0.000320 -0.001865 83.701195 11.542337 -10.338931 -2.946641 0.000001 -0.000155 0.000003 -0.000001 0.000001 -9.103691 -0.042760 -1.864911 83.882011 15.896432 -14.261370 -3.379320 0.000315 -0.000846 85.367242 9.378315 -8.667946 -2.889744 0.000343 0.000602 87.779303 6.875556 -6.658479 -2.638803 0.000014 0.000943 -0.000000 0.000000 0.000001 -8.076744 -0.486387 -3.806073 76.675499 15.251220 -11.969198 -3.600046 0.000275 -0.003578 79.781561 7.219401 -5.743876 -2.100018 0.000307 -0.005541 81.798052 5.322875 -4.422040 -2.115776 -0.000043 -0.003675 -0.000000 0.000002 -0.000006 4.570446 11.014691 -2.160851 -0.000018 0.000010 -0.000021 10.592419 -0.524457 -2.232373 75.664289 -18.842453 14.685158 27.841833 0.000078 -0.000207 102.348944 -68.529713 80.498520 28.328827 -0.000029 0.000021 0.000027 -0.000089 -0.000001 2.466213 -1.576091 2.681846 -1.302620 161.705821 -82.423950 3.217851 -1.871816 1.916399 165.113512 -24.135536 31.273790 2.656101 -1.528687 1.514500 136.247384 -28.666984 60.410551 2.020887 -1.154066 1.115162 -0.000000 0.000003 0.000004 9.109359 -0.517892 2.259741 75.160078 -19.008396 14.672696 3.700060 0.000130 -0.000449 75.122293 -17.370447 13.413964 2.850063 0.000149 0.000198 72.813894 -14.351322 10.607660 2.774879 -0.000045 -0.000029 -0.000000 -0.000002 0.000000 9.533462 0.000195 -0.000079 75.695162 -17.844658 13.902818 3.700051 0.000156 -0.000372 79.648366 -15.003940 12.530989 2.950042 0.000147 -0.000187 80.952987 -16.369325 13.997542 2.952882 -0.000031 0.000067 -0.000001 0.000000 -0.000000 9.104573 -0.042869 -1.865217 73.671021 -16.563299 12.446411 3.150062 0.000171 -0.000102 80.073169 -12.866149 10.824886 2.950012 0.000156 -0.000067 83.050729 -12.798568 11.345067 2.644324 0.000044 0.000059 -0.000001 0.000001 0.000000 8.077835 -0.486738 -3.806402 68.682777 -17.764537 12.605964 3.600012 0.000164 0.014583 72.010548 -14.331040 10.820034 2.100037 0.000162 0.007557 75.561324 -12.723488 10.259000 2.125509 -0.000000 0.007514 -0.000000 -0.000000 -0.000002 -8.207786 -6.751667 -1.599560 -0.077001 -0.000003 0.000080 -0.000002 -44.370110 0.345938 0.153719 -0.000000 -0.000000 0.000000 -44.423679 -3.043532 -0.076700 0.000000 -0.000002 -0.000006 -8.728667 10.710559 -0.000009 -0.000000 -0.000000 -0.000001 -0.000679 9.278123 0.000000 -0.000000 -0.000000 8.207792 -6.751710 -1.599556 -0.074518 -0.000003 0.000081 -0.000002 -44.370014 0.346960 0.148822 0.000002 0.000000 -0.000001 -44.423664 -3.044403 -0.074314 0.000000 -0.000002 -0.000004 -8.728671 10.710558 0.000007 -0.000000 -0.000000 0.000000 -0.000680 9.278137 -0.000000 0.000000 -0.000001 
0.000006 104.270477 1.554256 0.000010 0.000003 -0.000113 -0.000005 10.181587 0.131522 0.000001 -0.000003 0.000084 -0.000000 9.893967 -1.470711 0.000001 0.000000 -0.000000 -0.000000 9.220802 -1.370642 0.000000 -0.000000 -0.000000 0.000001 16.740433 -2.049030 0.000000 -0.000000 -0.000000 0.000000 9.617859 1.685014 0.000000 0.000000 0.000000 0.000002 22.037384 7.501101 0.000000 -0.000000 0.000000 -4.569968 11.014880 -2.160881 0.000008 0.000001 -0.000038 -10.592873 -0.524765 -2.231900 74.023698 30.828755 -23.484190 -27.841526 0.000016 0.000538 -59.897385 107.158701 75.971859 -28.328827 0.000018 0.000024 -0.000322 -0.000045 0.000006 -2.464442 -1.573712 2.682301 -52.677175 -174.493643 -24.951468 -3.215281 -1.872564 1.924640 152.370305 31.159166 2.705628 -2.654967 -1.527862 1.513065 145.574745 27.452916 -34.164770 -2.018827 -1.152015 1.108074 -0.000005 -0.000004 0.000005 -9.108386 -0.517548 2.260059 87.696460 15.409134 -14.853162 -3.700068 0.000321 0.001451 84.089526 13.077486 -11.781856 -2.850081 0.000356 -0.000329 81.876640 10.412854 -9.037441 -2.772158 -0.000016 -0.000020 -0.000002 -0.000001 0.000001 -9.532564 0.000269 0.000192 84.318658 12.706027 -11.638107 -3.700071 0.000328 0.003919 83.272389 11.024303 -9.723260 -2.950062 0.000332 -0.001848 84.356210 11.160113 -10.110903 -2.946620 0.000002 -0.000152 0.000006 -0.000001 0.000001 -9.103683 -0.042760 -1.864911 83.193009 15.470204 -13.711835 -3.379327 0.000314 -0.000860 83.562112 9.224888 -8.261557 -2.889744 0.000345 0.000606 88.901455 6.638463 -6.557154 -2.638805 0.000010 0.000937 0.000003 -0.000000 -0.000002 -8.076741 -0.486399 -3.806070 77.215050 15.701741 -12.446212 -3.600034 0.000268 -0.003582 78.319553 7.093732 -5.494598 -2.100009 0.000315 -0.005531 82.100301 4.586989 -3.806618 -2.115777 -0.000038 -0.003676 0.000001 -0.000000 -0.000003 4.570446 11.014691 -2.160851 -0.000018 0.000010 -0.000021 10.592386 -0.524486 -2.232330 75.436817 -7.035906 5.444424 27.841825 0.000079 -0.000186 102.837411 -69.783298 82.319694 28.328833 -0.000043 0.000015 0.000019 -0.000089 -0.000000 2.466267 -1.576025 2.681806 7.573102 176.339611 -110.922784 3.217879 -1.871882 1.916437 163.903530 -19.516279 49.086056 2.656111 -1.528690 1.514504 137.123643 -28.248626 64.229009 2.020899 -1.154068 1.115165 -0.000002 0.000008 0.000002 9.109390 -0.517896 2.259735 75.295186 -20.216059 15.650702 3.700043 0.000141 -0.000469 75.484963 -13.818363 10.730566 2.850049 0.000161 0.000206 74.609387 -10.083266 7.690047 2.774873 -0.000045 -0.000031 -0.000002 -0.000002 -0.000000 9.533464 0.000175 -0.000079 76.828406 -19.167130 15.244704 3.700053 0.000152 -0.000380 79.859794 -11.558256 9.682044 2.950035 0.000143 -0.000205 79.677374 -10.455769 8.733146 2.952888 -0.000017 0.000068 0.000000 0.000001 0.000000 9.104601 -0.042876 -1.865217 77.527708 -18.361555 14.790466 3.150051 0.000173 -0.000103 80.960281 -13.182623 11.266179 2.950029 0.000168 -0.000087 81.237191 -10.001451 8.585158 2.644325 0.000012 0.000059 0.000001 0.000002 -0.000000 8.077847 -0.486749 -3.806402 72.317080 -19.795889 14.985896 3.600011 0.000139 0.014570 71.623283 -17.357888 12.961308 2.100048 0.000139 0.007552 73.469203 -12.141907 9.441184 2.125510 0.000002 0.007518 -0.000001 -0.000006 -0.000002 -8.207786 -6.751667 -1.599560 -0.077001 -0.000003 0.000080 -0.000002 -44.370110 0.345938 0.153719 -0.000000 -0.000000 0.000000 -44.423679 -3.043532 -0.076700 0.000000 -0.000002 -0.000006 -8.728667 10.710559 -0.000009 -0.000000 -0.000000 -0.000001 -0.000679 9.278123 0.000000 -0.000000 -0.000000 8.207792 -6.751710 -1.599556 -0.074518 -0.000003 0.000081 -0.000002 -44.370014 0.346960 0.148822 0.000002 0.000000 -0.000001 -44.423664 -3.044403 -0.074314 0.000000 -0.000002 -0.000004 -8.728671 10.710558 0.000007 -0.000000 -0.000000 0.000000 -0.000680 9.278137 -0.000000 0.000000 -0.000001 
0.000006 104.270477 1.554256 0.000010 0.000003 -0.000113 -0.000005 10.181587 0.131522 0.000001 -0.000003 0.000084 -0.000000 9.893967 -1.470711 0.000001 0.000000 -0.000000 -0.000000 9.220802 -1.370642 0.000000 -0.000000 -0.000000 0.000001 16.740433 -2.049030 0.000000 -0.000000 -0.000000 0.000000 9.617859 1.685014 0.000000 0.000000 0.000000 0.000002 22.037384 7.501101 0.000000 -0.000000 0.000000 -4.569968 11.014880 -2.160881 0.000008 0.000001 -0.000038 -10.592865 -0.524795 -2.231849 73.505273 39.916227 -30.347019 -27.841532 -0.000003 0.000551 -57.005134 103.328434 68.954113 -28.328817 0.000022 0.000028 -0.000321 -0.000044 0.000006 -2.464440 -1.573922 2.682391 -30.443584 -154.546458 26.603158 -3.215279 -1.872582 1.924664 155.964378 31.930964 4.686748 -2.654964 -1.527889 1.513086 150.172692 26.682380 -33.887048 -2.018826 -1.152005 1.108062 0.000001 -0.000003 0.000002 -9.108378 -0.517548 2.260085 91.709790 15.660992 -16.177050 -3.700050 0.000312 0.001480 88.701140 12.831045 -12.522850 -2.850072 0.000367 -0.000307 86.231985 9.916758 -9.287131 -2.772162 -0.000016 -0.000017 -0.000000 -0.000001 -0.000001 -9.532583 0.000271 0.000196 86.344062 13.057799 -12.386237 -3.700058 0.000329 0.003935 85.867622 10.546073 -9.728704 -2.950062 0.000340 -0.001838 85.959331 10.673271 -9.943128 -2.946649 0.000007 -0.000157 0.000005 -0.000002 0.000001 -9.103681 -0.042741 -1.864897 84.827685 15.125413 -13.791186 -3.379329 0.000316 -0.000835 87.024034 10.006169 -9.518422 -2.889773 0.000338 0.000604 90.836837 7.332544 -7.486569 -2.638808 -0.000002 0.000945 -0.000003 0.000001 -0.000000 -8.076738 -0.486384 -3.806079 77.538985 15.064623 -12.003856 -3.600047 0.000269 -0.003552 79.027952 8.574169 -6.781113 -2.100007 0.000312 -0.005517 83.193323 6.180768 -5.291526 -2.115776 -0.000052 -0.003680 -0.000003 -0.000000 -0.000003 4.570446 11.014691 -2.160851 -0.000018 0.000010 -0.000021 10.592422 -0.524463 -2.232373 74.323441 -20.452639 15.573142 27.841835 0.000071 -0.000181 105.052093 -73.228179 88.212119 28.328846 -0.000028 0.000027 0.000027 -0.000091 0.000001 2.466268 -1.576007 2.681806 12.312686 178.394610 -118.015697 3.217872 -1.871917 1.916465 159.777099 -17.641972 61.644486 2.656139 -1.528693 1.514493 137.312579 -28.214977 62.007073 2.020890 -1.154074 1.115146 -0.000001 0.000005 0.000006 9.109391 -0.517893 2.259749 76.271309 -21.167460 16.680901 3.700030 0.000128 -0.000458 76.527236 -14.500184 11.473398 2.850053 0.000176 0.000191 75.720106 -10.930127 8.505844 2.774879 -0.000030 -0.000027 -0.000000 -0.000001 0.000000 9.533486 0.000177 -0.000076 77.257212 -19.561954 15.679582 3.700042 0.000161 -0.000393 81.431879 -11.698240 10.074503 2.950041 0.000169 -0.000203 81.613842 -10.308022 8.908409 2.952851 -0.000047 0.000066 -0.000001 0.000000 -0.000000 9.104617 -0.042874 -1.865216 78.604891 -18.649575 15.311954 3.150055 0.000178 -0.000087 82.291963 -13.300818 11.635807 2.950019 0.000168 -0.000106 82.504300 -9.925202 8.711366 2.644311 0.000031 0.000061 -0.000003 -0.000001 -0.000000 8.077881 -0.486741 -3.806392 74.922223 -20.148911 15.978276 3.600006 0.000136 0.014552 73.066673 -17.718571 13.576304 2.100029 0.000138 0.007548 74.243241 -12.289775 9.687176 2.125526 0.000000 0.007512 -0.000000 -0.000003 0.000000 -8.207786 -6.751667 -1.599560 -0.077001 -0.000003 0.000080 -0.000002 -44.370110 0.345938 0.153719 -0.000000 -0.000000 0.000000 -44.423679 -3.043532 -0.076700 0.000000 -0.000002 -0.000006 -8.728667 10.710559 -0.000009 -0.000000 -0.000000 -0.000001 -0.000679 9.278123 0.000000 -0.000000 -0.000000 8.207792 -6.751710 -1.599556 -0.074518 -0.000003 0.000081 -0.000002 -44.370014 0.346960 0.148822 0.000002 0.000000 -0.000001 -44.423664 -3.044403 -0.074314 0.000000 -0.000002 -0.000004 -8.728671 10.710558 0.000007 -0.000000 -0.000000 0.000000 -0.000680 9.278137 -0.000000 0.000000 -0.000001 
